HIERARCHY
ROOT Hips
{
  OFFSET 5.84602e-005 68.8428 3.50346
  CHANNELS 6 Xposition Yposition Zposition Zrotation Xrotation Yrotation
  JOINT Spine
  {
    OFFSET 0 8.597 -4.6522
    CHANNELS 3 Zrotation Xrotation Yrotation
    JOINT Spine1
    {
      OFFSET 0 7.8454 0.4098
      CHANNELS 3 Zrotation Xrotation Yrotation
      JOINT Spine2
      {
        OFFSET 0 9.7078 -2.1609
        CHANNELS 3 Zrotation Xrotation Yrotation
        JOINT Neck
        {
          OFFSET 0 21.8761 -0.4549
          CHANNELS 3 Zrotation Xrotation Yrotation
          JOINT Head
          {
            OFFSET 0 12.3537 3.3602
            CHANNELS 3 Zrotation Xrotation Yrotation
            End Site
            {
              OFFSET 0.0001 18.9506 0.5657
            }
          }
        }
        JOINT LeftShoulder
        {
          OFFSET 2.2086 21.1115 7.2329
          CHANNELS 3 Zrotation Xrotation Yrotation
          JOINT LeftArm
          {
            OFFSET 13.1193 3.0282 -4.8998
            CHANNELS 3 Zrotation Xrotation Yrotation
            JOINT LeftForeArm
            {
              OFFSET 27.4081 -0.0973053 -0.2375
              CHANNELS 3 Zrotation Xrotation Yrotation
              JOINT LeftHand
              {
                OFFSET 22.8641 0.0662994 -0.1369
                CHANNELS 3 Zrotation Xrotation Yrotation
                JOINT LeftHandIndex1
                {
                  OFFSET 8.8614 0.775009 2.4612
                  CHANNELS 3 Zrotation Xrotation Yrotation
                  JOINT LeftHandIndex2
                  {
                    OFFSET 3.3146 -0.808304 0.5841
                    CHANNELS 3 Zrotation Xrotation Yrotation
                    JOINT LeftHandIndex3
                    {
                      OFFSET 2.2628 -0.552002 0.3989
                      CHANNELS 3 Zrotation Xrotation Yrotation
                      End Site
                      {
                        OFFSET 1.6102 -0.4807 0.2612
                      }
                    }
                  }
                }
                JOINT LeftHandMiddle1
                {
                  OFFSET 8.9937 0.895004 0.2143
                  CHANNELS 3 Zrotation Xrotation Yrotation
                  JOINT LeftHandMiddle2
                  {
                    OFFSET 4.0984 0.0113983 -0.0242
                    CHANNELS 3 Zrotation Xrotation Yrotation
                    JOINT LeftHandMiddle3
                    {
                      OFFSET 2.2716 0.00689697 -0.0138001
                      CHANNELS 3 Zrotation Xrotation Yrotation
                      End Site
                      {
                        OFFSET 2.0404 -0.1441 0.0027
                      }
                    }
                  }
                }
                JOINT LeftHandRing1
                {
                  OFFSET 8.5234 0.597198 -2.0164
                  CHANNELS 3 Zrotation Xrotation Yrotation
                  JOINT LeftHandRing2
                  {
                    OFFSET 3.7188 -0.188293 -0.2328
                    CHANNELS 3 Zrotation Xrotation Yrotation
                    JOINT LeftHandRing3
                    {
                      OFFSET 2.1191 -0.106598 -0.1332
                      CHANNELS 3 Zrotation Xrotation Yrotation
                      End Site
                      {
                        OFFSET 1.8737 -0.2304 -0.0886
                      }
                    }
                  }
                }
                JOINT LeftHandPinky1
                {
                  OFFSET 7.9094 -0.601089 -3.4825
                  CHANNELS 3 Zrotation Xrotation Yrotation
                  JOINT LeftHandPinky2
                  {
                    OFFSET 2.2874 -0.477005 -0.6314
                    CHANNELS 3 Zrotation Xrotation Yrotation
                    JOINT LeftHandPinky3
                    {
                      OFFSET 1.6774 -0.349396 -0.4633
                      CHANNELS 3 Zrotation Xrotation Yrotation
                      End Site
                      {
                        OFFSET 1.4888 -0.4091 -0.3416
                      }
                    }
                  }
                }
                JOINT LeftHandThumb1
                {
                  OFFSET 1.833 -1.3875 1.3896
                  CHANNELS 3 Zrotation Xrotation Yrotation
                  JOINT LeftHandThumb2
                  {
                    OFFSET 3.4129 -1.121 2.5732
                    CHANNELS 3 Zrotation Xrotation Yrotation
                    JOINT LeftHandThumb3
                    {
                      OFFSET 2.2474 -0.804199 1.6192
                      CHANNELS 3 Zrotation Xrotation Yrotation
                      End Site
                      {
                        OFFSET 1.6527 -0.5689 1.1317
                      }
                    }
                  }
                }
              }
            }
          }
        }
        JOINT RightShoulder
        {
          OFFSET -2.2086 21.1115 7.2329
          CHANNELS 3 Zrotation Xrotation Yrotation
          JOINT RightArm
          {
            OFFSET -13.1216 3.0287 -4.9007
            CHANNELS 3 Zrotation Xrotation Yrotation
            JOINT RightForeArm
            {
              OFFSET -27.4081 -0.0973053 -0.2375
              CHANNELS 3 Zrotation Xrotation Yrotation
              JOINT RightHand
              {
                OFFSET -22.8641 0.0664063 -0.1369
                CHANNELS 3 Zrotation Xrotation Yrotation
                JOINT RightHandIndex1
                {
                  OFFSET -8.8614 0.774994 2.4612
                  CHANNELS 3 Zrotation Xrotation Yrotation
                  JOINT RightHandIndex2
                  {
                    OFFSET -3.3146 -0.808304 0.5841
                    CHANNELS 3 Zrotation Xrotation Yrotation
                    JOINT RightHandIndex3
                    {
                      OFFSET -2.2628 -0.552002 0.3989
                      CHANNELS 3 Zrotation Xrotation Yrotation
                      End Site
                      {
                        OFFSET -1.6102 -0.4807 0.2612
                      }
                    }
                  }
                }
                JOINT RightHandMiddle1
                {
                  OFFSET -8.9937 0.894989 0.2143
                  CHANNELS 3 Zrotation Xrotation Yrotation
                  JOINT RightHandMiddle2
                  {
                    OFFSET -4.0984 0.0113983 -0.0242
                    CHANNELS 3 Zrotation Xrotation Yrotation
                    JOINT RightHandMiddle3
                    {
                      OFFSET -2.2716 0.00691223 -0.0138001
                      CHANNELS 3 Zrotation Xrotation Yrotation
                      End Site
                      {
                        OFFSET -2.0404 -0.1441 0.0027
                      }
                    }
                  }
                }
                JOINT RightHandRing1
                {
                  OFFSET -8.5234 0.597198 -2.0164
                  CHANNELS 3 Zrotation Xrotation Yrotation
                  JOINT RightHandRing2
                  {
                    OFFSET -3.7188 -0.188309 -0.2328
                    CHANNELS 3 Zrotation Xrotation Yrotation
                    JOINT RightHandRing3
                    {
                      OFFSET -2.1191 -0.106598 -0.1332
                      CHANNELS 3 Zrotation Xrotation Yrotation
                      End Site
                      {
                        OFFSET -1.8737 -0.2304 -0.0886
                      }
                    }
                  }
                }
                JOINT RightHandPinky1
                {
                  OFFSET -7.9094 -0.601105 -3.4825
                  CHANNELS 3 Zrotation Xrotation Yrotation
                  JOINT RightHandPinky2
                  {
                    OFFSET -2.2874 -0.477005 -0.6314
                    CHANNELS 3 Zrotation Xrotation Yrotation
                    JOINT RightHandPinky3
                    {
                      OFFSET -1.6774 -0.349396 -0.4633
                      CHANNELS 3 Zrotation Xrotation Yrotation
                      End Site
                      {
                        OFFSET -1.4888 -0.4091 -0.3416
                      }
                    }
                  }
                }
                JOINT RightHandThumb1
                {
                  OFFSET -1.833 -1.38751 1.3896
                  CHANNELS 3 Zrotation Xrotation Yrotation
                  JOINT RightHandThumb2
                  {
                    OFFSET -3.41299 -1.12099 2.5732
                    CHANNELS 3 Zrotation Xrotation Yrotation
                    JOINT RightHandThumb3
                    {
                      OFFSET -2.24741 -0.804108 1.6192
                      CHANNELS 3 Zrotation Xrotation Yrotation
                      End Site
                      {
                        OFFSET -1.6527 -0.5689 1.1317
                      }
                    }
                  }
                }
              }
            }
          }
        }
      }
    }
  }
  JOINT RightUpLeg
  {
    OFFSET -9.1966 3.8861 -0.7581
    CHANNELS 3 Zrotation Xrotation Yrotation
    JOINT RightLeg
    {
      OFFSET -0.7359 -41.0265 0
      CHANNELS 3 Zrotation Xrotation Yrotation
      JOINT RightFoot
      {
        OFFSET 0 -40.2855 0
        CHANNELS 3 Zrotation Xrotation Yrotation
        JOINT RightToeBase
        {
          OFFSET 0 -5.6122 11.7359
          CHANNELS 3 Zrotation Xrotation Yrotation
          End Site
          {
            OFFSET 0 0 7.8731
          }
        }
      }
    }
  }
  JOINT LeftUpLeg
  {
    OFFSET 9.1965 3.8864 -0.7581
    CHANNELS 3 Zrotation Xrotation Yrotation
    JOINT LeftLeg
    {
      OFFSET 0.7359 -41.0268 0
      CHANNELS 3 Zrotation Xrotation Yrotation
      JOINT LeftFoot
      {
        OFFSET 0 -40.2855 0
        CHANNELS 3 Zrotation Xrotation Yrotation
        JOINT LeftToeBase
        {
          OFFSET 0 -5.6122 11.7359
          CHANNELS 3 Zrotation Xrotation Yrotation
          End Site
          {
            OFFSET 0 0 7.8731
          }
        }
      }
    }
  }
}
MOTION
Frames:	5
Frame Time:	0.0333333
5.84602e-005 68.8428 3.50346 0 0 -0 0 0 -0 0 0 -0 0 0 -0 0 0 -0 0 0 -0 0 0 -0 0 0 -0 0 0 -0 0 0 -0 0 0 -0 0 0 -0 0 0 -0 0 0 -0 -0.0146107 -8.87603e-005 -2.63497e-007 2.99804e-018 -2.42657e-020 -1.42182e-022 0 0 -0 -0.0187562 -0.001176 5.858e-005 5.06224e-018 3.88251e-019 1.21329e-020 0 0 -0 -0.012269 -0.00324817 0.000675346 -1.74678e-018 3.88251e-019 -0 0 0 -0 0 0 -0 0 0 -0 0 0 -0 0 0 -0 0 0 -0 0 0 -0 0 0 -0 0 0 -0 0 0 -0 0 0 -0 0.0149955 -9.10982e-005 2.64101e-007 -9.69331e-018 1.21329e-020 -4.7394e-023 0 0 -0 0.0189956 -0.00119102 -5.96516e-005 -5.41541e-019 0 2.42657e-020 0 0 -0 0.0122698 -0.00324857 -0.000673756 -2.00796e-019 0 -1.94126e-019 0 0 -0 0 0 -0 0 0 -0 3.39842 1.33031 -0.0637918 -5.65207e-008 0.834868 -0.000436188 -3.39935 -2.16518 -0.0642563 -8.89002e-024 -1.18485e-023 -1.48106e-024 -3.39844 1.35642 0.0640283 -3.18788e-007 0.782166 -0.000588827 3.39931 -2.13858 0.0634662 1.1399e-023 0 -0 
8.9139e-005 20.1961 8.59865 -0 -60.741 -0 -0.0133892 -2.26302 -0.113143 -0.0312914 -4.52603 -0.227081 -0.0312914 -4.526 -0.227081 -1.10974e-006 13.3321 4.82106e-006 0.000892945 6.66041 0.0102824 -11.5614 10.4588 2.75507 -49.3648 -6.98583 -39.0135 -11.3666 25.6885 0.277668 -32.0358 -16.9736 5.98277 -3.94668e-006 5.09899e-008 2.71131e-006 -3.94668e-006 5.099e-008 2.71131e-006 -3.94668e-006 5.099e-008 2.71131e-006 -3.94668e-006 5.09899e-008 2.71131e-006 -0.014651 -8.92529e-005 -2.55438e-006 -3.9466e-006 5.06437e-008 2.71132e-006 -3.94668e-006 5.09899e-008 2.71131e-006 -0.0187567 -0.00117723 5.58234e-005 -3.94655e-006 5.05545e-008 2.71136e-006 -3.94668e-006 5.09899e-008 2.71131e-006 -0.0122591 -0.00324549 0.000676202 -3.94654e-006 5.0741e-008 2.71143e-006 -3.94668e-006 5.09899e-008 2.71131e-006 -3.94668e-006 5.099e-008 2.71131e-006 -3.94668e-006 5.099e-008 2.71131e-006 11.5601 10.4593 -2.75591 49.3608 -6.98998 39.0108 11.363 25.6886 -0.277812 32.0328 -16.9744 -5.9858 -3.92277e-006 -6.51244e-008 2.74844e-006 -3.92277e-006 -6.51244e-008 2.74844e-006 -3.09575e-006 -4.19831e-007 2.42851e-006 -3.92277e-006 -6.51244e-008 2.74844e-006 0.0150006 -9.26095e-005 -3.29485e-007 -3.92268e-006 -6.47651e-008 2.74845e-006 -3.92277e-006 -6.51244e-008 2.74844e-006 0.0190077 -0.00118863 -6.08239e-005 -3.92263e-006 -6.4677e-008 2.74849e-006 -3.92277e-006 -6.51244e-008 2.74844e-006 0.0122189 -0.00323572 -0.000667334 -3.09692e-006 -4.19261e-007 2.42871e-006 -3.92277e-006 -6.51244e-008 2.74844e-006 -3.92277e-006 -6.51244e-008 2.74844e-006 -3.09575e-006 -4.19831e-007 2.42851e-006 -8.74705 -12.9491 -37.0711 -1.0452 35.7207 -0.367933 -4.10456 10.3334 0.736083 -3.15592e-006 -7.88094e-007 8.14286e-007 8.73685 -12.9553 37.0478 1.04255 35.7216 0.366078 4.08947 10.3346 -0.71874 6.77064e-007 -4.44669e-007 1.49187e-006 
2.91649e-005 -1.19595 8.43461 -0 -88.0745 -0 -0.0200938 -3.32597 -0.164461 -0.0498956 -6.65184 -0.330931 -0.0498956 -6.65185 -0.330931 2.21681e-006 19.3315 -2.81775e-006 -0.00119339 9.68331 -0.0362634 -17.0373 15.3826 4.26861 -74.3343 -7.11372 -56.7914 -16.5993 37.5192 0.386015 -45.1894 -24.4628 9.12067 1.69847e-006 -1.93985e-006 -4.06288e-006 2.87509e-006 9.40825e-007 -4.82612e-006 2.58132e-007 -1.35154e-006 -3.47178e-006 1.69847e-006 -1.93985e-006 -4.06288e-006 -0.0146055 -8.5988e-005 -9.26311e-007 2.58028e-007 -1.3511e-006 -3.47195e-006 1.69847e-006 -1.93985e-006 -4.06288e-006 -0.0187274 -0.00116771 5.18983e-005 -1.10929e-006 1.69661e-006 -7.22387e-006 1.69847e-006 -1.93985e-006 -4.06288e-006 -0.0122617 -0.00324148 0.0006754 2.57941e-007 -1.3512e-006 -3.47193e-006 1.69847e-006 -1.93985e-006 -4.06288e-006 2.87509e-006 9.40825e-007 -4.82612e-006 2.58132e-007 -1.35154e-006 -3.47178e-006 17.0302 15.3795 -4.27697 74.3314 -7.11605 56.7881 16.5961 37.5188 -0.386215 45.1843 -24.4638 -9.12532 -2.8292e-006 9.05748e-007 4.87338e-006 -1.34304e-007 2.45728e-007 7.56309e-007 -2.35417e-007 -1.38416e-006 3.46909e-006 -2.8292e-006 9.05748e-007 4.87338e-006 0.0150152 -9.47177e-005 5.47934e-006 7.16224e-008 1.89935e-007 5.63052e-006 -2.8292e-006 9.05748e-007 4.87338e-006 0.0189841 -0.00119048 -6.63727e-005 7.11952e-008 1.90262e-007 5.63052e-006 -2.8292e-006 9.05748e-007 4.87338e-006 0.0122398 -0.00324357 -0.000681865 -2.3523e-007 -1.38382e-006 3.46924e-006 -2.8292e-006 9.05748e-007 4.87338e-006 -1.34304e-007 2.45728e-007 7.56309e-007 -2.35417e-007 -1.38416e-006 3.46909e-006 -19.6054 -15.2278 -54.5966 -2.34801 52.5714 0.0731886 -4.11988 15.3085 0.829111 -1.41262e-005 4.46302e-007 -2.2497e-006 19.6269 -15.204 54.6595 2.34498 52.5714 -0.0748674 4.16906 15.3023 -0.902584 -3.18055e-015 1.59028e-014 -1.59028e-015 
-0.000104504 3.71043 8.60623 -0 -82.0004 -0 -0.0180213 -3.1889 -0.153064 -0.0446942 -6.37773 -0.307851 -0.0446942 -6.37777 -0.307851 5.9808e-006 17.9986 -2.68649e-006 -0.00614789 9.0687 -0.139623 -15.6437 14.818 4.36355 -68.9049 -7.06785 -52.9339 -15.5881 34.8666 0.356892 -42.3439 -22.8117 8.38363 -2.70606e-006 1.3342e-006 1.35717e-006 -9.54166e-015 -3.18055e-015 -0 -1.35303e-006 6.67101e-007 6.78585e-007 -2.70606e-006 1.3342e-006 1.35717e-006 -0.0146162 -8.58322e-005 2.55438e-007 -1.35308e-006 6.67015e-007 6.78671e-007 -2.70606e-006 1.3342e-006 1.35717e-006 -0.0187395 -0.00117234 6.00544e-005 -1.98795e-006 1.04428e-006 1.09173e-006 -2.70606e-006 1.3342e-006 1.35717e-006 -0.012276 -0.00324896 0.000675687 -1.35305e-006 6.67025e-007 6.78698e-007 -2.70606e-006 1.3342e-006 1.35717e-006 -9.54166e-015 -3.18055e-015 -0 -1.35303e-006 6.67101e-007 6.78585e-007 15.6258 14.8073 -4.38593 68.9054 -7.06459 52.9315 15.5894 34.8648 -0.357068 42.3393 -22.8128 -8.3879 4.41391e-031 -7.95139e-015 3.18055e-015 3.18055e-015 3.18055e-015 -0 -3.18055e-015 3.18055e-015 -3.18055e-015 4.41391e-031 -7.95139e-015 3.18055e-015 0.014949 -8.72438e-005 -3.48618e-007 6.36111e-015 -1.59028e-015 -0 4.41391e-031 -7.95139e-015 3.18055e-015 0.0189911 -0.00119876 -6.13266e-005 1.90833e-014 -7.95139e-015 3.18055e-015 4.41391e-031 -7.95139e-015 3.18055e-015 0.0122724 -0.00324598 -0.000671144 -0 -4.77083e-015 -0 4.41391e-031 -7.95139e-015 3.18055e-015 3.18055e-015 3.18055e-015 -0 -3.18055e-015 3.18055e-015 -3.18055e-015 -16.7526 -15.0259 -50.0752 -1.96811 48.7632 -0.0889516 -3.67113 14.2148 0.290016 -3.47676e-006 -1.32433e-006 -4.22608e-007 16.8489 -14.9364 50.3347 1.96496 48.7606 0.0906728 3.86279 14.1936 -0.561969 1.05278e-006 -1.1265e-006 2.95069e-006 
-0.000219878 3.80292 8.60661 -0 -82.0004 -0 -0.017603 -3.27013 -0.153033 -0.044079 -6.54018 -0.307828 -0.0440793 -6.54019 -0.307828 3.25717e-006 17.9984 -1.15488e-006 -0.0101511 9.11547 -0.232727 -15.5206 15.2509 4.72252 -69.0537 -6.87852 -52.9989 -15.7155 34.86 0.35648 -42.3439 -22.8118 8.38365 -1.35313e-006 6.66598e-007 6.79467e-007 -2.70626e-006 1.3332e-006 1.35893e-006 -1.35313e-006 6.66599e-007 6.79467e-007 -1.35313e-006 6.66598e-007 6.79467e-007 -0.014602 -8.51351e-005 3.11822e-006 -1.35318e-006 6.66512e-007 6.79553e-007 -1.35313e-006 6.66598e-007 6.79467e-007 -0.01876 -0.00116973 5.35512e-005 -1.35319e-006 6.66484e-007 6.7959e-007 -1.35313e-006 6.66598e-007 6.79467e-007 -0.0122431 -0.00324368 0.000675685 -1.35315e-006 6.66522e-007 6.79579e-007 -1.35313e-006 6.66598e-007 6.79467e-007 -2.70626e-006 1.3332e-006 1.35893e-006 -1.35313e-006 6.66599e-007 6.79467e-007 15.4929 15.2333 -4.75774 69.057 -6.87043 52.9971 15.7205 34.857 -0.356621 42.3393 -22.8128 -8.38791 1.27222e-014 -1.59028e-015 -3.18055e-015 1.31711e-006 2.20224e-006 -4.06849e-006 3.18055e-015 -6.36111e-015 -0 1.27222e-014 -1.59028e-015 -3.18055e-015 0.0150195 -9.27732e-005 2.04968e-006 6.36111e-015 7.95139e-015 -0 1.27222e-014 -1.59028e-015 -3.18055e-015 0.0190088 -0.00119115 -5.76575e-005 -1.27222e-014 -2.8625e-014 1.27222e-014 1.27222e-014 -1.59028e-015 -3.18055e-015 0.0122785 -0.00324523 -0.000679009 9.83174e-007 3.75313e-007 -4.35406e-007 1.27222e-014 -1.59028e-015 -3.18055e-015 1.31711e-006 2.20224e-006 -4.06849e-006 3.18055e-015 -6.36111e-015 -0 -16.5627 -15.0171 -49.5877 -1.96798 48.761 -0.0803771 -3.31123 14.2163 -0.134963 1.90158e-006 -3.68334e-007 -4.00097e-006 16.7262 -14.8677 50.0235 1.96471 48.7563 0.0850135 3.63276 14.1831 -0.316517 1.31977e-006 1.44538e-006 -1.64443e-006 
